<!--

  Clock Face

-->

<?xml-stylesheet type="text/css" href="../css/hands.css" ?>

<svg viewBox="0 0 16 16" xmlns="http://www.w3.org/2000/svg" xmlns:xlink="http://www.w3.org/1999/xlink">
  <g id="hour-marker" stroke="hsl(0,0%,50%)" stroke-width="0.25">
    <line x1="8" y1="0" x2="8" y2="2" />
    <line x1="8" y1="0" x2="8" y2="2" transform="rotate(30, 8, 8)" style="animation-delay: 0.083s" />
    <line x1="8" y1="0" x2="8" y2="2" transform="rotate(60, 8, 8)" style="animation-delay: 0.166s" />
    <line x1="8" y1="0" x2="8" y2="2" transform="rotate(90, 8, 8)" style="animation-delay: 0.25s" />
    <line x1="8" y1="0" x2="8" y2="2" transform="rotate(120, 8, 8)" style="animation-delay: 0.333s" />
    <line x1="8" y1="0" x2="8" y2="2" transform="rotate(150, 8, 8)" style="animation-delay: 0.416s" />
    <line x1="8" y1="0" x2="8" y2="2" transform="rotate(180, 8, 8)" style="animation-delay: 0.5s" />
    <line x1="8" y1="0" x2="8" y2="2" transform="rotate(210, 8, 8)" style="animation-delay: 0.583s" />
    <line x1="8" y1="0" x2="8" y2="2" transform="rotate(240, 8, 8)" style="animation-delay: 0.666s" />
    <line x1="8" y1="0" x2="8" y2="2" transform="rotate(270, 8, 8)" style="animation-delay: 0.75s" />
    <line x1="8" y1="0" x2="8" y2="2" transform="rotate(300, 8, 8)" style="animation-delay: 0.833s" />
    <line x1="8" y1="0" x2="8" y2="2" transform="rotate(330, 8, 8)" style="animation-delay: 0.916s" />
  </g>

  <g id="min-marker" stroke="hsl(0,0%,50%)" stroke-width="0.095">
    <line x1="8" y1="0" x2="8" y2="0.76" transform="rotate(6, 8, 8)" style="animation-delay: 0.016s" />
    <line x1="8" y1="0" x2="8" y2="0.76" transform="rotate(12, 8, 8)" style="animation-delay: 0.033s" />
    <line x1="8" y1="0" x2="8" y2="0.76" transform="rotate(18, 8, 8)" style="animation-delay: 0.05s" />
    <line x1="8" y1="0" x2="8" y2="0.76" transform="rotate(24, 8, 8)" style="animation-delay: 0.066s" />

    <line x1="8" y1="0" x2="8" y2="0.76" transform="rotate(36, 8, 8)" style="animation-delay: 0.1s" />
    <line x1="8" y1="0" x2="8" y2="0.76" transform="rotate(42, 8, 8)" style="animation-delay: 0.116s" />
    <line x1="8" y1="0" x2="8" y2="0.76" transform="rotate(48, 8, 8)" style="animation-delay: 0.133s" />
    <line x1="8" y1="0" x2="8" y2="0.76" transform="rotate(54, 8, 8)" style="animation-delay: 0.15s" />

    <line x1="8" y1="0" x2="8" y2="0.76" transform="rotate(66, 8, 8)" style="animation-delay: 0.183s" />
    <line x1="8" y1="0" x2="8" y2="0.76" transform="rotate(72, 8, 8)" style="animation-delay: 0.2s" />
    <line x1="8" y1="0" x2="8" y2="0.76" transform="rotate(78, 8, 8)" style="animation-delay: 0.216s" />
    <line x1="8" y1="0" x2="8" y2="0.76" transform="rotate(84, 8, 8)" style="animation-delay: 0.233s" />

    <line x1="8" y1="0" x2="8" y2="0.76" transform="rotate(96, 8, 8)" style="animation-delay: 0.266s" />
    <line x1="8" y1="0" x2="8" y2="0.76" transform="rotate(102, 8, 8)" style="animation-delay: 0.283s" />
    <line x1="8" y1="0" x2="8" y2="0.76" transform="rotate(108, 8, 8)" style="animation-delay: 0.3s" />
    <line x1="8" y1="0" x2="8" y2="0.76" transform="rotate(114, 8, 8)" style="animation-delay: 0.316s" />

    <line x1="8" y1="0" x2="8" y2="0.76" transform="rotate(126, 8, 8)" style="animation-delay: 0.35s" />
    <line x1="8" y1="0" x2="8" y2="0.76" transform="rotate(132, 8, 8)" style="animation-delay: 0.366s" />
    <line x1="8" y1="0" x2="8" y2="0.76" transform="rotate(138, 8, 8)" style="animation-delay: 0.383s" />
    <line x1="8" y1="0" x2="8" y2="0.76" transform="rotate(144, 8, 8)" style="animation-delay: 0.4s" />

    <line x1="8" y1="0" x2="8" y2="0.76" transform="rotate(156, 8, 8)" style="animation-delay: 0.433s" />
    <line x1="8" y1="0" x2="8" y2="0.76" transform="rotate(162, 8, 8)" style="animation-delay: 0.45s" />
    <line x1="8" y1="0" x2="8" y2="0.76" transform="rotate(168, 8, 8)" style="animation-delay: 0.466s" />
    <line x1="8" y1="0" x2="8" y2="0.76" transform="rotate(174, 8, 8)" style="animation-delay: 0.483s" />


    <line x1="8" y1="0" x2="8" y2="0.76" transform="rotate(186, 8, 8)" style="animation-delay: 0.516s" />
    <line x1="8" y1="0" x2="8" y2="0.76" transform="rotate(192, 8, 8)" style="animation-delay: 0.533s" />
    <line x1="8" y1="0" x2="8" y2="0.76" transform="rotate(198, 8, 8)" style="animation-delay: 0.55s" />
    <line x1="8" y1="0" x2="8" y2="0.76" transform="rotate(204, 8, 8)" style="animation-delay: 0.566s" />

    <line x1="8" y1="0" x2="8" y2="0.76" transform="rotate(216, 8, 8)" style="animation-delay: 0.6s" />
    <line x1="8" y1="0" x2="8" y2="0.76" transform="rotate(222, 8, 8)" style="animation-delay: 0.616s" />
    <line x1="8" y1="0" x2="8" y2="0.76" transform="rotate(228, 8, 8)" style="animation-delay: 0.633s" />
    <line x1="8" y1="0" x2="8" y2="0.76" transform="rotate(234, 8, 8)" style="animation-delay: 0.65s" />

    <line x1="8" y1="0" x2="8" y2="0.76" transform="rotate(246, 8, 8)" style="animation-delay: 0.683s" />
    <line x1="8" y1="0" x2="8" y2="0.76" transform="rotate(252, 8, 8)" style="animation-delay: 0.7s" />
    <line x1="8" y1="0" x2="8" y2="0.76" transform="rotate(258, 8, 8)" style="animation-delay: 0.716s" />
    <line x1="8" y1="0" x2="8" y2="0.76" transform="rotate(264, 8, 8)" style="animation-delay: 0.733s" />

    <line x1="8" y1="0" x2="8" y2="0.76" transform="rotate(276, 8, 8)" style="animation-delay: 0.766s" />
    <line x1="8" y1="0" x2="8" y2="0.76" transform="rotate(282, 8, 8)" style="animation-delay: 0.783s" />
    <line x1="8" y1="0" x2="8" y2="0.76" transform="rotate(288, 8, 8)" style="animation-delay: 0.8s" />
    <line x1="8" y1="0" x2="8" y2="0.76" transform="rotate(294, 8, 8)" style="animation-delay: 0.816s" />

    <line x1="8" y1="0" x2="8" y2="0.76" transform="rotate(306, 8, 8)" style="animation-delay: 0.85s" />
    <line x1="8" y1="0" x2="8" y2="0.76" transform="rotate(312, 8, 8)" style="animation-delay: 0.866s" />
    <line x1="8" y1="0" x2="8" y2="0.76" transform="rotate(318, 8, 8)" style="animation-delay: 0.883s" />
    <line x1="8" y1="0" x2="8" y2="0.76" transform="rotate(324, 8, 8)" style="animation-delay: 0.9s" />

    <line x1="8" y1="0" x2="8" y2="0.76" transform="rotate(336, 8, 8)" style="animation-delay: 0.933s" />
    <line x1="8" y1="0" x2="8" y2="0.76" transform="rotate(342, 8, 8)" style="animation-delay: 0.95s" />
    <line x1="8" y1="0" x2="8" y2="0.76" transform="rotate(348, 8, 8)" style="animation-delay: 0.966s" />
    <line x1="8" y1="0" x2="8" y2="0.76" transform="rotate(354, 8, 8)" style="animation-delay: 0.983s" />
  </g>

  <!-- Hands -->
  <g id="hour-container">
    <g id="hour" stroke="black" stroke-width="0.4">
      <line x1="8" y1="3" x2="8" y2="8" />
    </g>
  </g>

  <g id="minute-container">
    <g id="minute" stroke="black" stroke-width="0.4">
      <line x1="8" y1="0" x2="8" y2="8" />
    </g>
  </g>

  <circle id="red-circle" cx="8" cy="8" r="0.4" fill="red" />

  <g id="second-container">
    <g id="second" stroke="red" stroke-width="0.154">
      <line x1="8" y1="0" x2="8" y2="10" />
    </g>
  </g>

  <script xlink:href="../functions.js"></script>
</svg>
